<?xml version="1.0" standalone="no"?>
<!DOCTYPE svg PUBLIC "-//W3C//DTD SVG 20010904//EN"
 "http://www.w3.org/TR/2001/REC-SVG-20010904/DTD/svg10.dtd">
<svg version="1.0" xmlns="http://www.w3.org/2000/svg"
 width="512.000000pt" height="256.000000pt" viewBox="0 0 512.000000 256.000000"
 preserveAspectRatio="xMidYMid meet">
<metadata>
Created by potrace 1.16, written by Peter Selinger 2001-2019
</metadata>
<g transform="translate(0.000000,256.000000) scale(0.100000,-0.100000)"
fill="#000000" stroke="none">
<path d="M2630 1822 l0 -69 -62 -17 c-168 -47 -332 -164 -396 -284 -36 -68
-62 -159 -61 -217 l0 -40 29 60 c75 155 207 238 402 252 l87 6 3 -71 3 -72
165 126 c91 68 165 129 165 134 0 8 -279 227 -324 254 -8 5 -11 -14 -11 -62z"/>
<path d="M250 920 l0 -270 798 0 797 0 70 113 c39 61 78 120 88 130 18 18 175
260 184 284 4 11 -166 13 -966 13 l-971 0 0 -270z m750 147 c51 -18 61 -46 58
-159 -4 -136 -11 -142 -158 -146 l-110 -4 0 161 0 161 88 -1 c48 0 103 -5 122
-12z m315 -1 c42 -18 50 -43 50 -146 -1 -105 -9 -128 -50 -146 -45 -19 -148
-18 -185 1 -36 19 -45 47 -45 145 0 94 17 137 59 149 48 14 133 12 171 -3z
m314 -10 c13 -12 21 -31 21 -53 0 -30 -3 -33 -30 -33 -23 0 -33 6 -40 26 -9
23 -14 25 -62 22 l-53 -3 0 -95 0 -95 58 -3 c57 -3 57 -3 63 27 5 26 11 31 35
31 37 0 42 -11 29 -60 -13 -49 -36 -60 -119 -60 -121 0 -141 24 -141 167 0 96
9 119 53 139 46 21 159 14 186 -10z"/>
<path d="M860 920 l0 -100 53 0 c29 0 58 5 65 12 7 7 12 42 12 88 0 46 -5 81
-12 88 -7 7 -36 12 -65 12 l-53 0 0 -100z"/>
<path d="M1160 994 c-13 -33 -13 -130 0 -155 9 -15 22 -19 66 -19 49 0 55 2
64 26 6 14 10 47 10 74 0 27 -4 60 -10 74 -9 24 -15 26 -65 26 -50 0 -56 -2
-65 -26z"/>
<path d="M2960 920 l0 -270 798 0 797 0 70 113 c39 61 78 120 88 130 18 18
175 260 184 284 4 11 -166 13 -966 13 l-971 0 0 -270z m473 149 c57 -16 70
-44 69 -151 -2 -141 -21 -158 -178 -158 l-94 0 0 153 c0 85 3 157 7 160 10 11
154 8 196 -4z m322 -3 c26 -11 36 -23 44 -53 14 -49 14 -137 0 -186 -14 -52
-58 -70 -151 -65 -96 5 -112 22 -117 130 -4 106 10 155 52 173 42 18 129 19
172 1z m314 -10 c13 -12 21 -31 21 -53 0 -30 -3 -33 -29 -33 -23 0 -30 5 -33
23 -3 20 -8 22 -63 22 l-60 0 0 -95 0 -95 60 0 c55 0 60 2 65 25 5 20 13 26
39 28 l34 3 -7 -43 c-4 -24 -13 -49 -21 -57 -17 -17 -117 -27 -170 -17 -48 9
-63 37 -70 131 -9 107 7 155 55 172 51 19 154 12 179 -11z m147 -37 l37 -61
35 61 c33 55 40 61 69 61 18 0 33 -3 33 -8 0 -4 -20 -39 -44 -78 l-44 -71 49
-77 c27 -42 49 -79 49 -82 0 -3 -17 -4 -37 -2 -34 3 -41 8 -74 66 l-37 63 -38
-66 c-35 -59 -41 -65 -71 -65 -18 0 -33 4 -33 10 0 5 20 41 45 80 25 39 45 72
45 75 0 3 -20 36 -45 75 -25 39 -45 72 -45 75 0 3 15 5 34 5 32 0 38 -5 72
-61z"/>
<path d="M3300 920 l0 -100 60 0 c72 0 80 10 80 100 0 90 -8 100 -80 100 l-60
0 0 -100z"/>
<path d="M3605 1009 c-13 -20 -17 -133 -6 -162 10 -27 13 -28 73 -25 l63 3 0
95 0 95 -62 3 c-38 2 -64 -1 -68 -9z"/>
</g>
</svg>
