<?xml version="1.0" encoding="UTF-8" standalone="no"?>
<!DOCTYPE svg PUBLIC "-//W3C//DTD SVG 1.1//EN" "http://www.w3.org/Graphics/SVG/1.1/DTD/svg11.dtd">
<svg version="1.1" xmlns="http://www.w3.org/2000/svg" xmlns:xlink="http://www.w3.org/1999/xlink" preserveAspectRatio="xMidYMid meet" viewBox="0 0 640 640" width="640" height="640"><defs><path d="M261.02 449.36C267.47 449.36 272.7 444.13 272.7 437.69C272.7 414.15 272.7 225.85 272.7 202.31C272.7 195.86 267.47 190.64 261.02 190.64C249.23 190.64 154.87 190.64 143.08 190.64C137.99 190.64 133.12 192.66 129.52 196.25C125.26 200.22 91.19 231.96 86.93 235.93C83.33 239.52 81.31 244.4 81.31 249.49C81.31 268.31 81.31 418.87 81.31 437.69C81.31 444.13 86.54 449.36 92.98 449.36C126.59 449.36 244.22 449.36 261.02 449.36Z" id="b36dgjRF6C"></path><path d="M230.82 190.64C237.27 190.64 242.5 195.86 242.5 202.31C242.5 225.85 242.5 414.15 242.5 437.69C242.5 444.14 237.27 449.36 230.82 449.36C233.84 449.36 258 449.36 261.02 449.36C267.47 449.36 272.7 444.14 272.7 437.69C272.7 414.15 272.7 225.85 272.7 202.31C272.7 195.86 267.47 190.64 261.02 190.64C254.98 190.64 233.84 190.64 230.82 190.64Z" id="c31s0Pzl95"></path><path d="M83.96 244.31C108.98 244.31 122.87 244.31 125.65 244.31C132.42 244.31 137.9 238.82 137.9 232.06C137.9 229.44 137.9 216.37 137.9 192.84" id="b2iNKlFlsj"></path><path d="M566.54 449.36C572.98 449.36 578.21 444.13 578.21 437.69C578.21 414.15 578.21 225.85 578.21 202.31C578.21 195.86 572.98 190.64 566.54 190.64C554.74 190.64 460.39 190.64 448.59 190.64C443.51 190.64 438.63 192.66 435.03 196.25C430.77 200.22 396.7 231.96 392.44 235.93C388.85 239.52 386.82 244.4 386.82 249.49C386.82 268.31 386.82 418.87 386.82 437.69C386.82 444.13 392.05 449.36 398.5 449.36C432.11 449.36 549.73 449.36 566.54 449.36Z" id="aHRiWiV1x"></path><path d="M536.33 190.64C542.78 190.64 548.01 195.86 548.01 202.31C548.01 225.85 548.01 414.15 548.01 437.69C548.01 444.14 542.78 449.36 536.33 449.36C539.35 449.36 563.52 449.36 566.54 449.36C572.98 449.36 578.21 444.14 578.21 437.69C578.21 414.15 578.21 225.85 578.21 202.31C578.21 195.86 572.98 190.64 566.54 190.64C560.5 190.64 539.35 190.64 536.33 190.64Z" id="aPycqLhv9"></path><path d="M389.48 244.31C414.49 244.31 428.39 244.31 431.17 244.31C437.93 244.31 443.41 238.82 443.41 232.06C443.41 229.44 443.41 216.37 443.41 192.84" id="c8J4K78En2"></path><path d="M222.56 183.09C218.39 183.09 215.01 186.47 215.01 190.64C215.01 194.81 218.39 198.19 222.56 198.19C226.41 198.19 257.18 198.19 261.02 198.19C263.3 198.19 265.15 200.04 265.15 202.31C265.15 225.85 265.15 414.15 265.15 437.69C265.15 439.96 263.3 441.81 261.02 441.81C244.22 441.81 109.79 441.81 92.98 441.81C90.71 441.81 88.86 439.96 88.86 437.69C88.86 425.3 88.86 363.36 88.86 251.86C110.94 251.86 123.2 251.86 125.65 251.86C136.57 251.86 145.45 242.98 145.45 232.06C145.45 229.8 145.45 218.51 145.45 198.19C173.6 198.19 189.23 198.19 192.36 198.19C196.53 198.19 199.91 194.81 199.91 190.64C199.91 186.47 196.53 183.09 192.36 183.09C187.43 183.09 148.01 183.09 143.08 183.09C135.99 183.09 129.32 185.83 124.28 190.81C120.03 194.77 86.03 226.44 81.78 230.4C81.72 230.46 81.65 230.53 81.59 230.59C76.54 235.64 73.76 242.35 73.76 249.49C73.76 268.31 73.76 418.87 73.76 437.69C73.76 448.29 82.38 456.91 92.98 456.91C109.79 456.91 244.22 456.91 261.02 456.91C271.62 456.91 280.25 448.29 280.25 437.69C280.25 414.15 280.25 225.85 280.25 202.31C280.25 191.71 271.62 183.09 261.02 183.09C253.33 183.09 226.41 183.09 222.56 183.09ZM130.35 205.8C130.35 221.56 130.35 230.31 130.35 232.06C130.35 234.65 128.24 236.76 125.65 236.76C123.75 236.76 114.24 236.76 97.11 236.76L130.35 205.8Z" id="f1PDxQ6QWR"></path><path d="M131.21 277.15C127.04 277.15 123.66 280.53 123.66 284.7C123.66 288.87 127.04 292.25 131.21 292.25C140.34 292.25 213.42 292.25 222.56 292.25C226.73 292.25 230.11 288.87 230.11 284.7C230.11 280.53 226.73 277.15 222.56 277.15C204.29 277.15 140.34 277.15 131.21 277.15Z" id="bFKcXB7NY"></path><path d="M131.21 305.23C127.04 305.23 123.66 308.61 123.66 312.78C123.66 316.95 127.04 320.33 131.21 320.33C140.34 320.33 213.42 320.33 222.56 320.33C226.73 320.33 230.11 316.95 230.11 312.78C230.11 308.61 226.73 305.23 222.56 305.23C204.29 305.23 140.34 305.23 131.21 305.23Z" id="a4xQ7A1Y6e"></path><path d="M131.21 333.31C127.04 333.31 123.66 336.69 123.66 340.86C123.66 345.03 127.04 348.41 131.21 348.41C140.34 348.41 213.42 348.41 222.56 348.41C226.73 348.41 230.11 345.03 230.11 340.86C230.11 336.69 226.73 333.31 222.56 333.31C204.29 333.31 140.34 333.31 131.21 333.31Z" id="d3Ha2kPZRk"></path><path d="M131.21 376.69C127.04 376.69 123.66 380.07 123.66 384.24C123.66 388.41 127.04 391.79 131.21 391.79C140.34 391.79 213.42 391.79 222.56 391.79C226.73 391.79 230.11 388.41 230.11 384.24C230.11 380.07 226.73 376.69 222.56 376.69C204.29 376.69 140.34 376.69 131.21 376.69Z" id="cJBkjYYnL"></path><path d="M448.59 183.09C441.5 183.09 434.83 185.83 429.8 190.81C425.55 194.77 391.55 226.44 387.29 230.4C387.23 230.46 387.17 230.53 387.1 230.59C382.05 235.64 379.27 242.35 379.27 249.49C379.27 268.31 379.27 418.87 379.27 437.69C379.27 448.29 387.9 456.91 398.5 456.91C404.4 456.91 451.62 456.91 457.52 456.91C461.69 456.91 465.07 453.53 465.07 449.36C465.07 445.19 461.69 441.81 457.52 441.81C451.62 441.81 404.4 441.81 398.5 441.81C396.22 441.81 394.37 439.96 394.37 437.69C394.37 425.3 394.37 363.36 394.37 251.86C416.45 251.86 428.71 251.86 431.16 251.86C442.08 251.86 450.96 242.98 450.96 232.06C450.96 229.8 450.96 218.51 450.96 198.19C520.31 198.19 558.83 198.19 566.54 198.19C568.81 198.19 570.66 200.04 570.66 202.31C570.66 225.85 570.66 414.15 570.66 437.69C570.66 439.96 568.81 441.81 566.54 441.81C558.65 441.81 495.6 441.81 487.72 441.81C483.55 441.81 480.17 445.19 480.17 449.36C480.17 453.53 483.55 456.91 487.72 456.91C495.6 456.91 558.65 456.91 566.54 456.91C577.13 456.91 585.76 448.29 585.76 437.69C585.76 414.15 585.76 225.85 585.76 202.31C585.76 191.71 577.14 183.09 566.54 183.09C542.95 183.09 460.39 183.09 448.59 183.09ZM402.63 236.76L435.86 205.8C435.86 221.55 435.86 230.31 435.86 232.06C435.86 234.65 433.76 236.76 431.17 236.76C427.36 236.76 417.85 236.76 402.63 236.76Z" id="a3jdzx014O"></path><path d="M528.07 292.25C532.24 292.25 535.62 288.87 535.62 284.7C535.62 280.53 532.24 277.15 528.07 277.15C518.94 277.15 445.85 277.15 436.72 277.15C432.55 277.15 429.17 280.53 429.17 284.7C429.17 288.87 432.55 292.25 436.72 292.25C454.99 292.25 518.94 292.25 528.07 292.25Z" id="d6kzdsGZ5"></path><path d="M528.07 320.33C532.24 320.33 535.62 316.95 535.62 312.78C535.62 308.61 532.24 305.23 528.07 305.23C518.94 305.23 445.85 305.23 436.72 305.23C432.55 305.23 429.17 308.61 429.17 312.78C429.17 316.95 432.55 320.33 436.72 320.33C454.99 320.33 518.94 320.33 528.07 320.33Z" id="b78BjHFPk"></path><path d="M528.07 348.41C532.24 348.41 535.62 345.03 535.62 340.86C535.62 336.69 532.24 333.31 528.07 333.31C518.94 333.31 445.85 333.31 436.72 333.31C432.55 333.31 429.17 336.69 429.17 340.86C429.17 345.03 432.55 348.41 436.72 348.41C454.99 348.41 518.94 348.41 528.07 348.41Z" id="aKoZsyMin"></path><path d="M528.07 391.79C532.24 391.79 535.62 388.41 535.62 384.24C535.62 380.07 532.24 376.69 528.07 376.69C518.94 376.69 445.85 376.69 436.72 376.69C432.55 376.69 429.17 380.07 429.17 384.24C429.17 388.41 432.55 391.79 436.72 391.79C454.99 391.79 518.94 391.79 528.07 391.79Z" id="c5OftOkOpI"></path><path d="M311.8 304.51C308.85 301.56 304.07 301.56 301.12 304.51C298.17 307.46 298.17 312.24 301.12 315.19C301.44 315.51 303.04 317.11 305.93 320C303.04 322.89 301.44 324.49 301.12 324.81C298.17 327.76 298.17 332.54 301.12 335.49C302.59 336.96 304.53 337.7 306.46 337.7C308.39 337.7 310.32 336.96 311.8 335.49C312.81 334.47 320.93 326.35 321.95 325.34C323.42 323.86 324.16 321.93 324.16 320C324.16 318.07 323.42 316.13 321.95 314.66C319.92 312.63 312.81 305.52 311.8 304.51Z" id="f2Fe0Vluo"></path><path d="M352.25 304.51C349.3 301.56 344.52 301.56 341.57 304.51C338.62 307.46 338.62 312.24 341.57 315.19C341.89 315.51 343.5 317.11 346.38 320C343.5 322.89 341.89 324.49 341.57 324.81C338.62 327.76 338.62 332.54 341.57 335.49C343.05 336.96 344.98 337.7 346.91 337.7C348.84 337.7 350.78 336.96 352.25 335.49C353.26 334.47 361.39 326.35 362.4 325.34C363.88 323.86 364.61 321.93 364.61 320C364.61 318.07 363.88 316.13 362.4 314.66C360.37 312.63 353.26 305.52 352.25 304.51Z" id="d6RZ5hWFT"></path></defs><g><g><g><use xlink:href="#b36dgjRF6C" opacity="1" fill="#edf5fa" fill-opacity="1"></use><g><use xlink:href="#b36dgjRF6C" opacity="1" fill-opacity="0" stroke="#000000" stroke-width="1" stroke-opacity="0"></use></g></g><g><use xlink:href="#c31s0Pzl95" opacity="1" fill="#d0e7f2" fill-opacity="1"></use><g><use xlink:href="#c31s0Pzl95" opacity="1" fill-opacity="0" stroke="#000000" stroke-width="1" stroke-opacity="0"></use></g></g><g><use xlink:href="#b2iNKlFlsj" opacity="1" fill="#b7d9eb" fill-opacity="1"></use><g><use xlink:href="#b2iNKlFlsj" opacity="1" fill-opacity="0" stroke="#000000" stroke-width="1" stroke-opacity="0"></use></g></g><g><use xlink:href="#aHRiWiV1x" opacity="1" fill="#edf5fa" fill-opacity="1"></use><g><use xlink:href="#aHRiWiV1x" opacity="1" fill-opacity="0" stroke="#000000" stroke-width="1" stroke-opacity="0"></use></g></g><g><use xlink:href="#aPycqLhv9" opacity="1" fill="#d0e7f2" fill-opacity="1"></use><g><use xlink:href="#aPycqLhv9" opacity="1" fill-opacity="0" stroke="#000000" stroke-width="1" stroke-opacity="0"></use></g></g><g><use xlink:href="#c8J4K78En2" opacity="1" fill="#b7d9eb" fill-opacity="1"></use><g><use xlink:href="#c8J4K78En2" opacity="1" fill-opacity="0" stroke="#000000" stroke-width="1" stroke-opacity="0"></use></g></g><g><use xlink:href="#f1PDxQ6QWR" opacity="1" fill="#000000" fill-opacity="1"></use><g><use xlink:href="#f1PDxQ6QWR" opacity="1" fill-opacity="0" stroke="#000000" stroke-width="1" stroke-opacity="0"></use></g></g><g><use xlink:href="#bFKcXB7NY" opacity="1" fill="#000000" fill-opacity="1"></use><g><use xlink:href="#bFKcXB7NY" opacity="1" fill-opacity="0" stroke="#000000" stroke-width="1" stroke-opacity="0"></use></g></g><g><use xlink:href="#a4xQ7A1Y6e" opacity="1" fill="#000000" fill-opacity="1"></use><g><use xlink:href="#a4xQ7A1Y6e" opacity="1" fill-opacity="0" stroke="#000000" stroke-width="1" stroke-opacity="0"></use></g></g><g><use xlink:href="#d3Ha2kPZRk" opacity="1" fill="#000000" fill-opacity="1"></use><g><use xlink:href="#d3Ha2kPZRk" opacity="1" fill-opacity="0" stroke="#000000" stroke-width="1" stroke-opacity="0"></use></g></g><g><use xlink:href="#cJBkjYYnL" opacity="1" fill="#000000" fill-opacity="1"></use><g><use xlink:href="#cJBkjYYnL" opacity="1" fill-opacity="0" stroke="#000000" stroke-width="1" stroke-opacity="0"></use></g></g><g><use xlink:href="#a3jdzx014O" opacity="1" fill="#000000" fill-opacity="1"></use><g><use xlink:href="#a3jdzx014O" opacity="1" fill-opacity="0" stroke="#000000" stroke-width="1" stroke-opacity="0"></use></g></g><g><use xlink:href="#d6kzdsGZ5" opacity="1" fill="#000000" fill-opacity="1"></use><g><use xlink:href="#d6kzdsGZ5" opacity="1" fill-opacity="0" stroke="#000000" stroke-width="1" stroke-opacity="0"></use></g></g><g><use xlink:href="#b78BjHFPk" opacity="1" fill="#000000" fill-opacity="1"></use><g><use xlink:href="#b78BjHFPk" opacity="1" fill-opacity="0" stroke="#000000" stroke-width="1" stroke-opacity="0"></use></g></g><g><use xlink:href="#aKoZsyMin" opacity="1" fill="#000000" fill-opacity="1"></use><g><use xlink:href="#aKoZsyMin" opacity="1" fill-opacity="0" stroke="#000000" stroke-width="1" stroke-opacity="0"></use></g></g><g><use xlink:href="#c5OftOkOpI" opacity="1" fill="#000000" fill-opacity="1"></use><g><use xlink:href="#c5OftOkOpI" opacity="1" fill-opacity="0" stroke="#000000" stroke-width="1" stroke-opacity="0"></use></g></g><g><use xlink:href="#f2Fe0Vluo" opacity="1" fill="#000000" fill-opacity="1"></use><g><use xlink:href="#f2Fe0Vluo" opacity="1" fill-opacity="0" stroke="#000000" stroke-width="1" stroke-opacity="0"></use></g></g><g><use xlink:href="#d6RZ5hWFT" opacity="1" fill="#000000" fill-opacity="1"></use><g><use xlink:href="#d6RZ5hWFT" opacity="1" fill-opacity="0" stroke="#000000" stroke-width="1" stroke-opacity="0"></use></g></g></g></g></svg>