<?xml version="1.0" encoding="UTF-8" standalone="no" ?>
<!DOCTYPE svg PUBLIC "-//W3C//DTD SVG 1.1//EN" "http://www.w3.org/Graphics/SVG/1.1/DTD/svg11.dtd">
<svg xmlns="http://www.w3.org/2000/svg" xmlns:xlink="http://www.w3.org/1999/xlink" version="1.1" width="350" height="350" viewBox="0 0 350 350" xml:space="preserve">
<desc>Created with Fabric.js 1.7.22</desc>
<defs>
</defs>
<g id="icon" style="stroke: none; stroke-width: 1; stroke-dasharray: none; stroke-linecap: butt; stroke-linejoin: miter; stroke-miterlimit: 10; fill: none; fill-rule: nonzero; opacity: 1;" transform="translate(-1.9444444444444287 -1.9444444444444287) scale(3.89 3.89)" >
	<path d="M 47.438 74.788 L 47.438 74.788 v 7.243 c 0 1.579 1.284 2.863 2.863 2.863 h 36.837 c 1.579 0 2.863 -1.284 2.863 -2.863 V 41.14 c 0 -0.764 -0.298 -1.483 -0.839 -2.024 l -10.04 -10.039 c -0.54 -0.541 -1.26 -0.839 -2.024 -0.839 H 50.3 c -1.579 0 -2.863 1.284 -2.863 2.863 V 74.788" style="stroke: none; stroke-width: 1; stroke-dasharray: none; stroke-linecap: butt; stroke-linejoin: miter; stroke-miterlimit: 10; fill: rgb(220,223,225); fill-rule: nonzero; opacity: 1;" transform=" matrix(1 0 0 1 0 0) " stroke-linecap="round" />
	<polygon points="78.33,39.83 90,51.45 89.95,40.66 " style="stroke: none; stroke-width: 1; stroke-dasharray: none; stroke-linecap: butt; stroke-linejoin: miter; stroke-miterlimit: 10; fill: rgb(196,203,210); fill-rule: nonzero; opacity: 1;" transform="  matrix(1 0 0 1 0 0) "/>
	<path d="M 89.161 39.116 l -10.04 -10.039 c -0.425 -0.425 -0.963 -0.694 -1.544 -0.792 v 9.683 c 0 1.485 1.208 2.693 2.693 2.693 h 9.683 C 89.855 40.079 89.587 39.542 89.161 39.116 z" style="stroke: none; stroke-width: 1; stroke-dasharray: none; stroke-linecap: butt; stroke-linejoin: miter; stroke-miterlimit: 10; fill: rgb(171,178,184); fill-rule: nonzero; opacity: 1;" transform=" matrix(1 0 0 1 0 0) " stroke-linecap="round" />
	<path d="M 0 51.656 L 0 51.656 v 7.243 c 0 1.579 1.284 2.863 2.863 2.863 H 39.7 c 1.579 0 2.863 -1.284 2.863 -2.863 V 18.008 c 0 -0.764 -0.298 -1.483 -0.839 -2.024 L 31.684 5.945 c -0.54 -0.541 -1.26 -0.839 -2.024 -0.839 H 2.863 C 1.284 5.106 0 6.39 0 7.969 V 51.656" style="stroke: none; stroke-width: 1; stroke-dasharray: none; stroke-linecap: butt; stroke-linejoin: miter; stroke-miterlimit: 10; fill: rgb(220,223,225); fill-rule: nonzero; opacity: 1;" transform=" matrix(1 0 0 1 0 0) " stroke-linecap="round" />
	<polygon points="30.89,16.7 42.56,28.32 42.52,17.53 " style="stroke: none; stroke-width: 1; stroke-dasharray: none; stroke-linecap: butt; stroke-linejoin: miter; stroke-miterlimit: 10; fill: rgb(196,203,210); fill-rule: nonzero; opacity: 1;" transform="  matrix(1 0 0 1 0 0) "/>
	<path d="M 41.724 15.984 L 31.684 5.945 c -0.425 -0.425 -0.963 -0.694 -1.544 -0.792 v 9.683 c 0 1.485 1.208 2.693 2.693 2.693 h 9.683 C 42.418 16.947 42.15 16.41 41.724 15.984 z" style="stroke: none; stroke-width: 1; stroke-dasharray: none; stroke-linecap: butt; stroke-linejoin: miter; stroke-miterlimit: 10; fill: rgb(171,178,184); fill-rule: nonzero; opacity: 1;" transform=" matrix(1 0 0 1 0 0) " stroke-linecap="round" />
	<path d="M 50.701 52.827 c -0.376 -0.515 -1.078 -0.695 -1.637 -0.389 c -1.239 0.68 -2.625 1.035 -4.064 1.035 c -3.608 0 -6.689 -2.272 -7.908 -5.456 h 2.991 c 0.368 0 0.707 -0.202 0.882 -0.526 c 0.175 -0.324 0.159 -0.718 -0.043 -1.025 l -8.317 -12.716 c -0.185 -0.283 -0.501 -0.454 -0.839 -0.454 s -0.654 0.171 -0.839 0.454 L 22.61 46.465 c -0.201 0.308 -0.218 0.702 -0.043 1.025 c 0.175 0.324 0.514 0.526 0.882 0.526 h 3.814 c 1.44 8.491 8.843 14.979 17.738 14.979 c 3.376 0 6.617 -0.923 9.454 -2.68 c 0.638 -0.395 0.795 -1.258 0.353 -1.863 L 50.701 52.827 z" style="stroke: none; stroke-width: 1; stroke-dasharray: none; stroke-linecap: butt; stroke-linejoin: miter; stroke-miterlimit: 10; fill: rgb(0,122,153); fill-rule: nonzero; opacity: 1;" transform=" matrix(1 0 0 1 0 0) " stroke-linecap="round" />
	<path d="M 67.433 42.106 c -0.175 -0.324 -0.513 -0.525 -0.881 -0.525 h -3.886 C 61.063 33.288 53.753 27.005 45 27.005 c -3.05 0 -6.019 0.764 -8.666 2.221 c -0.655 0.36 -0.852 1.213 -0.442 1.838 l 3.815 5.828 c 0.348 0.531 1.038 0.751 1.61 0.475 c 1.141 -0.552 2.396 -0.839 3.683 -0.839 c 3.455 0 6.429 2.081 7.746 5.054 h -2.829 c -0.368 0 -0.707 0.202 -0.881 0.525 c -0.175 0.324 -0.159 0.718 0.043 1.026 l 8.317 12.716 c 0.185 0.283 0.501 0.454 0.839 0.454 c 0.338 0 0.654 -0.171 0.839 -0.454 l 8.317 -12.716 C 67.592 42.824 67.608 42.43 67.433 42.106 z" style="stroke: none; stroke-width: 1; stroke-dasharray: none; stroke-linecap: butt; stroke-linejoin: miter; stroke-miterlimit: 10; fill: rgb(0,122,153); fill-rule: nonzero; opacity: 1;" transform=" matrix(1 0 0 1 0 0) " stroke-linecap="round" />
</g>
</svg>