<svg xmlns="http://www.w3.org/2000/svg" viewBox="34 0 432 500">
  <path d="M 34 125 L 106 83 L 106 167 L 34 125 Z M 394 167 L 178 42 L 250 0 L 466 125 L 394 167 Z M 250 250 L 178 208 L 178 125 L 322 208 L 250 250 Z" style="fill: rgb(3, 92, 100); paint-order: stroke; stroke: rgb(3, 92, 100); vector-effect: non-scaling-stroke; stroke-width: 0px;"/>
  <path d="M 34 375 L 34 125 L 106 167 L 106 417 L 34 375 Z M 250 416 L 250 500 L 178 458 L 250 416 Z M 250 250 L 250 333 L 178 375 L 178 208 L 250 250 Z" style="fill: rgb(79, 190, 159); paint-order: stroke; stroke: rgb(79, 190, 159); vector-effect: non-scaling-stroke; stroke-width: 0px;"/>
  <path d="M 466 375 L 250 500 L 250 416 L 394 333 L 394 167 L 466 125 L 466 375 Z M 250 250 L 322 208 L 322 292 L 250 333 L 250 250 Z" style="fill: rgb(41, 141, 130); paint-order: stroke; stroke: rgb(41, 141, 130); vector-effect: non-scaling-stroke; stroke-width: 0px;"/>
</svg>