<?xml version="1.0" standalone="no"?>
<!DOCTYPE svg PUBLIC "-//W3C//DTD SVG 20010904//EN"
 "http://www.w3.org/TR/2001/REC-SVG-20010904/DTD/svg10.dtd">
<svg version="1.0" xmlns="http://www.w3.org/2000/svg"
 width="32.000000pt" height="32.000000pt" viewBox="0 0 32.000000 32.000000"
 preserveAspectRatio="xMidYMid meet">

<g transform="translate(0.000000,32.000000) scale(0.100000,-0.100000)"
fill="#000000" stroke="none">
<path d="M50 160 l0 -110 110 0 110 0 0 110 0 110 -110 0 -110 0 0 -110z m200
0 l0 -90 -90 0 -90 0 0 90 0 90 90 0 90 0 0 -90z"/>
<path d="M130 220 c0 -5 9 -10 19 -10 17 0 15 -4 -10 -31 -34 -36 -37 -64 -10
-79 25 -13 81 -13 81 0 0 6 -15 10 -34 10 -44 0 -53 15 -29 48 25 34 43 39 43
13 0 -12 5 -21 10 -21 6 0 10 18 10 40 l0 40 -40 0 c-22 0 -40 -4 -40 -10z"/>
</g>
</svg>
